<svg xmlns="http://www.w3.org/2000/svg" viewBox="0 0 512 512" width="100%" height="100%">
  <defs>
    <linearGradient id="kb-grad" x1="0%" y1="0%" x2="100%" y2="100%">
      <stop offset="0%" stop-color="#4F46E5" />
      <stop offset="100%" stop-color="#6366F1" />
    </linearGradient>
    <filter id="shadow" x="-10%" y="-10%" width="120%" height="120%">
      <feDropShadow dx="0" dy="8" stdDeviation="12" flood-color="#4F46E5" flood-opacity="0.3"/>
    </filter>
  </defs>

  <!-- Rounded Squircle Box -->
  <rect x="32" y="32" width="448" height="448" rx="110" ry="110" fill="url(#kb-grad)" filter="url(#shadow)" />

  <!-- Location Pin Outline -->
  <path d="M 256 100 C 180 100, 130 155, 130 235 C 130 310, 230 400, 256 420 C 282 400, 382 310, 382 235 C 382 155, 332 100, 256 100 Z" fill="#FFFFFF" opacity="0.95" />

  <!-- House Silhouette inside Pin -->
  <path d="M 256 145 L 180 215 L 195 215 L 195 305 L 317 305 L 317 215 L 332 215 Z" fill="#4F46E5" />
  
  <!-- Roof Accent -->
  <path d="M 256 145 L 175 215 L 190 228 L 256 170 L 322 228 L 337 215 Z" fill="#4F46E5" />

  <!-- Key Overlay inside House -->
  <circle cx="256" cy="240" r="16" fill="#FFFFFF" />
  <rect x="251" y="240" width="10" height="45" rx="3" fill="#FFFFFF" />
  <rect x="256" y="265" width="12" height="6" rx="1.5" fill="#FFFFFF" />
  <rect x="256" y="276" width="9" height="6" rx="1.5" fill="#FFFFFF" />
</svg>
